<svg id="cloud-upload_1" data-name="cloud-upload 1" xmlns="http://www.w3.org/2000/svg" width="39.339" height="39.339" viewBox="0 0 39.339 39.339">
  <path id="cloud-upload_1_Background_Mask_" data-name="cloud-upload 1 (Background/Mask)" d="M0,0H39.339V39.339H0Z" fill="none"/>
  <path id="XMLID_270" data-name="XMLID 270" d="M25.816,27.045H9.835A9.829,9.829,0,0,1,6.6,7.931,11.063,11.063,0,0,1,28.24,10.189a8.567,8.567,0,0,1,6.181,8.251A8.615,8.615,0,0,1,25.816,27.045Zm-8.6-19.669a1.221,1.221,0,0,0-.869.36l-4.918,4.918a1.228,1.228,0,0,0,.869,2.1h2.459v4.917a2.458,2.458,0,1,0,4.917,0V14.752h2.459a1.228,1.228,0,0,0,.869-2.1L18.08,7.736A1.226,1.226,0,0,0,17.211,7.376Z" transform="translate(2.459 4.917)" fill="#b1b1b1"/>
</svg>
