<svg id="Group_53661" data-name="Group 53661" xmlns="http://www.w3.org/2000/svg" width="135.364" height="89.022" viewBox="0 0 135.364 89.022">
  <path id="Subtraction_3" data-name="Subtraction 3" d="M10.89,38.189a9.537,9.537,0,0,1-5.9-1.871c-2.3-1.739-3.823-4.58-4.536-8.443A39.277,39.277,0,0,1,.737,14.437c-.652,6.6.805,11.935,4.1,15.019a11.338,11.338,0,0,0,8.025,2.956l.279,0c4.185-.074,9-1.807,13.915-5.013a58.47,58.47,0,0,0,14.22-13.588A65.862,65.862,0,0,0,49.4,0h2.186c-1.047,1.956-2.168,3.918-3.331,5.833A114.244,114.244,0,0,1,38.887,19.09a83.648,83.648,0,0,1-9.814,10.166A47.205,47.205,0,0,1,19.561,35.8a20.054,20.054,0,0,1-8.454,2.388ZM4.211,1.369h0C4.37.918,4.536.457,4.7,0h.1C4.6.446,4.4.907,4.211,1.369Z" transform="translate(0 50.832)" fill="#fff"/>
  <path id="Path_4" data-name="Path 4" d="M353.505-36.5v8.183s-13.339,7.51-19.168,30.489c12.554-15.469,20.779-13.392,20.779-13.392s11.951,1.062,3.433,29.758h-5.717s8.586-18.383,7.107-23.27c-9.517-5.537-25.676,8.848-32.439,23.27,1.158-13.077,1.382-18.308,6.277-30.713C340.278-25.935,353.505-36.5,353.505-36.5Z" transform="translate(-323.604 36.5)" fill="#fff"/>
  <path id="Path_5" data-name="Path 5" d="M8.757,0,50.018,1.45l-8.429,7.86L0,8.166Z" transform="translate(42.84 19.789) rotate(43)" fill="#fff"/>
  <path id="Path_6" data-name="Path 6" d="M9.686,0l9.686,10.256H0Z" transform="translate(76.824 35.979) rotate(180)" fill="#fff"/>
  <path id="Path_16251" data-name="Path 16251" d="M3.23-32.543v-1.779a2.747,2.747,0,0,0,.57.392,4.4,4.4,0,0,0,.7.294,5.519,5.519,0,0,0,.741.185,3.949,3.949,0,0,0,.682.065,2.913,2.913,0,0,0,1.623-.363A1.194,1.194,0,0,0,8.08-34.8a1.148,1.148,0,0,0-.178-.643,1.866,1.866,0,0,0-.5-.5,5.228,5.228,0,0,0-.751-.432q-.432-.207-.926-.432-.53-.283-.987-.574a4.248,4.248,0,0,1-.795-.643,2.688,2.688,0,0,1-.53-.795,2.589,2.589,0,0,1-.192-1.038,2.4,2.4,0,0,1,.33-1.274,2.79,2.79,0,0,1,.871-.893,4,4,0,0,1,1.231-.523,5.844,5.844,0,0,1,1.408-.171,5.685,5.685,0,0,1,2.381.37v1.706a3.8,3.8,0,0,0-2.28-.639A4.086,4.086,0,0,0,6.4-41.2a2.277,2.277,0,0,0-.682.24,1.477,1.477,0,0,0-.49.428,1.05,1.05,0,0,0-.189.632,1.194,1.194,0,0,0,.145.6,1.554,1.554,0,0,0,.425.465,4.339,4.339,0,0,0,.682.41q.4.2.933.432.545.283,1.027.6a4.843,4.843,0,0,1,.849.69,3.031,3.031,0,0,1,.581.839,2.463,2.463,0,0,1,.214,1.049,2.6,2.6,0,0,1-.319,1.336,2.575,2.575,0,0,1-.86.886,3.832,3.832,0,0,1-1.245.494,7.02,7.02,0,0,1-1.488.152A6.339,6.339,0,0,1,5.339-32q-.381-.04-.78-.116A7.174,7.174,0,0,1,3.8-32.3,2.39,2.39,0,0,1,3.23-32.543Zm15.254-8.531H15.492v8.945H13.765v-8.945H10.781v-1.467h7.7Zm9.533,4.734q0,4.385-4.153,4.385-3.979,0-3.979-4.218v-6.367h1.728v6.011q0,3.064,2.381,3.064,2.294,0,2.294-2.955v-6.12h1.728Zm2.447,4.211V-42.541h3.006q5.757,0,5.757,5.075a5,5,0,0,1-1.6,3.873,6.1,6.1,0,0,1-4.284,1.463Zm1.721-8.945v7.485h1.379a3.857,3.857,0,0,0,2.835-1,3.805,3.805,0,0,0,1.013-2.831q0-3.652-3.783-3.652ZM42.9-32.129H41.121V-42.541H42.9Zm6.854.174a4.682,4.682,0,0,1-3.6-1.459,5.36,5.36,0,0,1-1.354-3.8,5.679,5.679,0,0,1,1.379-4.008,4.846,4.846,0,0,1,3.746-1.5,4.578,4.578,0,0,1,3.532,1.452,5.379,5.379,0,0,1,1.34,3.8,5.7,5.7,0,0,1-1.372,4.029A4.758,4.758,0,0,1,49.754-31.955Zm.08-9.242a2.9,2.9,0,0,0-2.327,1.067,4.222,4.222,0,0,0-.9,2.81,4.263,4.263,0,0,0,.871,2.8,2.809,2.809,0,0,0,2.28,1.06,2.943,2.943,0,0,0,2.36-1.009,4.21,4.21,0,0,0,.864-2.824,4.414,4.414,0,0,0-.839-2.882A2.835,2.835,0,0,0,49.833-41.2Z" transform="translate(80.572 86.048)" fill="#fff"/>
  <path id="Path_8" data-name="Path 8" d="M-.314,0,9.373,10.256H-10Z" transform="translate(49.028 44.781)" fill="#fff"/>
  <path id="Path_16252" data-name="Path 16252" d="M4.648-18.2H2.023a1.39,1.39,0,0,0,.334.958,1.151,1.151,0,0,0,.878.338,1.826,1.826,0,0,0,1.154-.414v.559a2.157,2.157,0,0,1-1.3.356,1.571,1.571,0,0,1-1.238-.506,2.073,2.073,0,0,1-.45-1.425A2.033,2.033,0,0,1,1.9-19.752,1.577,1.577,0,0,1,3.12-20.3a1.4,1.4,0,0,1,1.129.472,1.968,1.968,0,0,1,.4,1.31Zm-.61-.5a1.211,1.211,0,0,0-.249-.8.847.847,0,0,0-.681-.287.962.962,0,0,0-.715.3,1.367,1.367,0,0,0-.363.788Zm6.306,2.214H9.6L8.4-18.487a1.787,1.787,0,0,1-.12-.258H8.268q-.036.083-.123.258L6.91-16.494H6.163l1.742-2.617L6.3-21.7h.748l1.064,1.83a3.668,3.668,0,0,1,.185.363h.015a4.009,4.009,0,0,1,.2-.378L9.622-21.7h.7L8.686-19.119Zm2.444-.537h-.015v2.247h-.6v-5.427h.6v.653h.015a1.408,1.408,0,0,1,1.285-.741,1.361,1.361,0,0,1,1.122.5,2.067,2.067,0,0,1,.4,1.338,2.3,2.3,0,0,1-.454,1.494,1.511,1.511,0,0,1-1.241.561A1.244,1.244,0,0,1,12.788-17.032Zm-.015-1.5v.519a1.105,1.105,0,0,0,.3.782.994.994,0,0,0,.761.321,1,1,0,0,0,.848-.414,1.9,1.9,0,0,0,.307-1.151,1.5,1.5,0,0,0-.287-.973.949.949,0,0,0-.777-.352,1.055,1.055,0,0,0-.835.361A1.326,1.326,0,0,0,12.774-18.531Zm7.886.327H18.035a1.39,1.39,0,0,0,.334.958,1.151,1.151,0,0,0,.878.338,1.826,1.826,0,0,0,1.154-.414v.559a2.157,2.157,0,0,1-1.3.356,1.571,1.571,0,0,1-1.238-.506,2.073,2.073,0,0,1-.45-1.425,2.033,2.033,0,0,1,.492-1.414,1.577,1.577,0,0,1,1.222-.546,1.4,1.4,0,0,1,1.129.472,1.968,1.968,0,0,1,.4,1.31Zm-.61-.5a1.211,1.211,0,0,0-.249-.8.847.847,0,0,0-.681-.287.962.962,0,0,0-.715.3,1.367,1.367,0,0,0-.363.788Zm4.571-.9a.728.728,0,0,0-.45-.12.76.76,0,0,0-.637.359,1.661,1.661,0,0,0-.256.98v1.895h-.6v-3.717h.6v.766h.015a1.3,1.3,0,0,1,.388-.612.886.886,0,0,1,.584-.22.972.972,0,0,1,.356.051Zm2.074-1.546a.377.377,0,0,1-.272-.109.368.368,0,0,1-.113-.276.374.374,0,0,1,.113-.278.374.374,0,0,1,.272-.111.384.384,0,0,1,.278.111.37.37,0,0,1,.114.278.368.368,0,0,1-.114.272A.381.381,0,0,1,26.695-21.156Zm.29,4.661h-.6v-3.717h.6ZM32.3-18.2H29.676a1.39,1.39,0,0,0,.334.958,1.151,1.151,0,0,0,.878.338,1.826,1.826,0,0,0,1.154-.414v.559a2.157,2.157,0,0,1-1.3.356,1.571,1.571,0,0,1-1.238-.506,2.073,2.073,0,0,1-.45-1.425,2.033,2.033,0,0,1,.492-1.414,1.577,1.577,0,0,1,1.222-.546,1.4,1.4,0,0,1,1.129.472,1.968,1.968,0,0,1,.4,1.31Zm-.61-.5a1.211,1.211,0,0,0-.249-.8.847.847,0,0,0-.681-.287.962.962,0,0,0-.715.3,1.367,1.367,0,0,0-.363.788Zm5.718,2.214h-.6v-2.12q0-1.183-.864-1.183a.937.937,0,0,0-.739.336,1.245,1.245,0,0,0-.292.848v2.12h-.6v-3.717h.6v.617h.015a1.342,1.342,0,0,1,1.22-.7,1.137,1.137,0,0,1,.933.394,1.754,1.754,0,0,1,.323,1.138Zm4.778-.171a1.934,1.934,0,0,1-1.016.258,1.683,1.683,0,0,1-1.283-.517,1.875,1.875,0,0,1-.488-1.341,2.061,2.061,0,0,1,.526-1.476,1.841,1.841,0,0,1,1.4-.557,1.956,1.956,0,0,1,.864.182v.61a1.514,1.514,0,0,0-.886-.29,1.2,1.2,0,0,0-.935.408,1.55,1.55,0,0,0-.365,1.073,1.476,1.476,0,0,0,.343,1.031,1.182,1.182,0,0,0,.92.378,1.492,1.492,0,0,0,.915-.323ZM47.2-18.2H44.573a1.39,1.39,0,0,0,.334.958,1.151,1.151,0,0,0,.878.338,1.826,1.826,0,0,0,1.154-.414v.559a2.157,2.157,0,0,1-1.3.356,1.571,1.571,0,0,1-1.238-.506,2.073,2.073,0,0,1-.45-1.425,2.033,2.033,0,0,1,.492-1.414,1.577,1.577,0,0,1,1.222-.546,1.4,1.4,0,0,1,1.129.472,1.968,1.968,0,0,1,.4,1.31Zm-.61-.5a1.211,1.211,0,0,0-.249-.8.847.847,0,0,0-.681-.287.962.962,0,0,0-.715.3,1.367,1.367,0,0,0-.363.788ZM55.1-21.148H53.069v1.8h1.88v.548h-1.88v2.305h-.61V-21.7H55.1Zm2.335-.007a.377.377,0,0,1-.272-.109.368.368,0,0,1-.113-.276.374.374,0,0,1,.113-.278.374.374,0,0,1,.272-.111.384.384,0,0,1,.278.111.371.371,0,0,1,.114.278.368.368,0,0,1-.114.272A.381.381,0,0,1,57.437-21.156Zm.29,4.661h-.6v-3.717h.6Zm4.266-3.115a.728.728,0,0,0-.45-.12.76.76,0,0,0-.637.359,1.661,1.661,0,0,0-.256.98v1.895h-.6v-3.717h.6v.766h.015a1.3,1.3,0,0,1,.388-.612.886.886,0,0,1,.584-.22.972.972,0,0,1,.356.051Zm1.544,2.98v-.639a1.762,1.762,0,0,0,1.071.359q.784,0,.784-.523a.454.454,0,0,0-.067-.252.669.669,0,0,0-.182-.183,1.4,1.4,0,0,0-.269-.143q-.154-.064-.332-.133a4.272,4.272,0,0,1-.434-.2,1.311,1.311,0,0,1-.312-.225.838.838,0,0,1-.189-.285,1.008,1.008,0,0,1-.064-.374.888.888,0,0,1,.12-.463,1.062,1.062,0,0,1,.319-.338,1.49,1.49,0,0,1,.456-.205,2.021,2.021,0,0,1,.528-.069,2.133,2.133,0,0,1,.864.167v.6a1.684,1.684,0,0,0-.944-.269,1.1,1.1,0,0,0-.3.038.738.738,0,0,0-.231.107.5.5,0,0,0-.149.165.435.435,0,0,0-.053.212.509.509,0,0,0,.053.243.535.535,0,0,0,.154.174,1.178,1.178,0,0,0,.247.138q.145.062.33.134a4.6,4.6,0,0,1,.443.194,1.519,1.519,0,0,1,.334.225.879.879,0,0,1,.212.289.931.931,0,0,1,.074.388.916.916,0,0,1-.122.479,1.042,1.042,0,0,1-.325.338,1.488,1.488,0,0,1-.468.2,2.312,2.312,0,0,1-.555.065A2.109,2.109,0,0,1,63.537-16.629Zm6.227.1a1.148,1.148,0,0,1-.555.116q-.977,0-.976-1.089v-2.2h-.639v-.508h.639v-.908l.6-.192v1.1h.937v.508h-.937v2.095a.868.868,0,0,0,.127.534.507.507,0,0,0,.421.16.626.626,0,0,0,.388-.123Z" transform="translate(64.969 80.834)" fill="#fff"/>
</svg>
